<svg xmlns="http://www.w3.org/2000/svg" viewBox="0 0 548.24 548.24"><title>dna</title><path fill="#222222" d="M523,182.19q-3.14,3.14-6.28,6.11a6.54,6.54,0,0,1-9.13-.14L367.83,48.39a6.54,6.54,0,0,1-.14-9.13q3-3.14,6.11-6.28l6-6a6.55,6.55,0,0,0,0-9.26l-12-12a6.55,6.55,0,0,0-9.26,0l-6,6c-71.89,71.89-86.09,143.9-88.91,214.41a6.56,6.56,0,0,0,6.56,6.82h16.9a6.54,6.54,0,0,0,6.53-6.26v-.21a6.55,6.55,0,0,1,11.18-4.34l28.95,28.95a6.55,6.55,0,0,1-4.35,11.18c-17,.7-34.14.7-51.48.7-86.83,0-176.63,0-266.23,89.6l-6,6a6.55,6.55,0,0,0,0,9.26l12,12a6.55,6.55,0,0,0,9.26,0l6-6q3-3,5.9-5.75a6.54,6.54,0,0,1,9.13.13L187.81,508a6.54,6.54,0,0,1,.13,9.13q-2.8,2.95-5.75,5.9l-6,6a6.55,6.55,0,0,0,0,9.26l12,12a6.55,6.55,0,0,0,9.26,0l6-6c71.89-71.89,86.09-143.9,88.91-214.41a6.56,6.56,0,0,0-6.56-6.82h-16.9a6.54,6.54,0,0,0-6.53,6.26l0,.92a6.55,6.55,0,0,1-11.18,4.34l-29.62-29.62a6.55,6.55,0,0,1,4.34-11.18C243,293,260.42,293,278,293c86.84,0,176.63,0,266.23-89.6l6-6a6.55,6.55,0,0,0,0-9.26l-12-12a6.55,6.55,0,0,0-9.26,0ZM349.64,72.64,483.37,206.35a6.54,6.54,0,0,1-.86,10,249.21,249.21,0,0,1-22.44,13.92,6.56,6.56,0,0,1-7.79-1.11L326.85,103.73a6.56,6.56,0,0,1-1.11-7.79A249.37,249.37,0,0,1,339.66,73.5,6.54,6.54,0,0,1,349.64,72.64Zm-50.07,97.83a265.26,265.26,0,0,1,7.51-30.55A6.55,6.55,0,0,1,318,137.26L418.73,238a6.55,6.55,0,0,1-2.66,10.88,267,267,0,0,1-30.54,7.51,6.52,6.52,0,0,1-5.79-1.82l-78.36-78.36A6.52,6.52,0,0,1,299.57,170.47ZM206,483.8,72.2,350A6.54,6.54,0,0,1,73,340a249.61,249.61,0,0,1,22.4-14,6.56,6.56,0,0,1,7.81,1.1L228.89,452.74a6.56,6.56,0,0,1,1.1,7.81A251,251,0,0,1,216,483,6.54,6.54,0,0,1,206,483.8Zm31.82-64.51L136.7,318.13a6.55,6.55,0,0,1,2.64-10.87,265.25,265.25,0,0,1,30.47-7.58,6.52,6.52,0,0,1,5.81,1.81l78.88,78.88a6.52,6.52,0,0,1,1.81,5.81,265.25,265.25,0,0,1-7.58,30.47A6.55,6.55,0,0,1,237.87,419.3Z" transform="translate(-3.88 -3.88)"/></svg>